<?xml version="1.0" encoding="UTF-8"?>
<svg id="Layer_1" data-name="Layer 1" xmlns="http://www.w3.org/2000/svg" viewBox="0 0 1041.39 835.55">
  <defs>
    <style>
      .cls-1 {
        fill: #c12026;
        stroke-width: 0px;
      }
    </style>
  </defs>
  <path class="cls-1" d="m868.53,41.01l-2.54-.82-.11-.25c2.55-.37,5-.73,7.51-1.09,2.53-.34,5.17-.54,8.23-.64,11.94-.29,24.83.73,35.16,2.07-1.47-1.17-2.27-1.81-3.2-2.54-10.17-1.29-20.42-2.02-30.65-2.17-10.23-.16-20.44.35-30.5,1.38-5.04.48-10.03,1.23-14.99,1.97-4.94.88-9.86,1.74-14.7,2.87-4.86,1.02-9.62,2.35-14.37,3.61-4.7,1.41-9.39,2.78-13.94,4.41l-2.24-.16,6.4-2.27c2.15-.72,4.33-1.39,6.51-2.07l3.28-1.02,3.32-.93,6.68-1.8c8.99-2.19,18.18-4.05,27.53-5.34l-2.16-.52-6.57.89-6.51,1.11c-2.17.35-4.32.79-6.45,1.24l-6.4,1.37-6.32,1.57-3.14.8-3.11.89-6.18,1.81-6.08,2-1.31-.11,6.95-2.77,7.1-2.54-1.64-.07c-15.39,4.43-30.04,10.13-43.8,16.78-13.77,6.65-26.65,14.23-38.67,22.44-12.03,8.21-23.21,17.04-33.68,26.25-10.45,9.23-20.28,18.78-29.42,28.68l-1.12.37c13.52-14.75,28.32-28.96,44.8-42.19l6.3-4.87c1.06-.81,2.1-1.63,3.18-2.43l3.27-2.36c2.19-1.56,4.35-3.16,6.6-4.69l6.8-4.53c9.21-5.91,18.79-11.6,28.97-16.66l-1.92.07c-2.67,1.4-5.4,2.72-7.99,4.19l-7.78,4.38c-5.05,3.06-10.1,6.08-14.9,9.34-4.89,3.16-9.5,6.57-14.14,9.9-4.5,3.47-9.06,6.85-13.33,10.46-17.37,14.2-32.77,29.57-46.95,45.5-3.61,3.95-6.94,8.03-10.37,12.04-1.72,1.99-3.35,4.1-5.03,6.14-1.66,2.07-3.34,4.1-4.97,6.19-3.22,4.23-6.53,8.35-9.63,12.69l-4.7,6.44c-1.52,2.19-3.05,4.37-4.57,6.56l-2.27,3.29-2.21,3.34c-1.47,2.23-2.96,4.44-4.4,6.69-2.84,4.54-5.73,9.03-8.43,13.67-2.78,4.57-5.37,9.29-8.02,13.95-2.53,4.75-5.11,9.45-7.5,14.29,6.99-15.01,15.45-30.15,24.78-44.63,9.5-14.81,19.83-29.09,30.81-42.77l4.06-5.04,4.17-4.94,4.18-4.94,4.33-4.88c1.45-1.63,2.9-3.25,4.35-4.87,1.49-1.6,2.98-3.19,4.47-4.78,1.49-1.59,2.99-3.18,4.48-4.77,1.53-1.56,3.06-3.12,4.59-4.67,12.1-12.28,24.63-23.92,38.67-34.92l-1.81.43-4.6,3.42c-1.53,1.14-2.99,2.34-4.48,3.51-2.96,2.36-5.94,4.68-8.76,7.13l2.59-2.45c.88-.81,1.79-1.6,2.7-2.4,1.83-1.6,3.66-3.19,5.5-4.8,1.83-1.62,3.8-3.13,5.72-4.71,1.94-1.55,3.85-3.14,5.86-4.66,4.04-3,8.02-6.1,12.24-8.96,2.09-1.45,4.16-2.92,6.28-4.34,2.14-1.39,4.28-2.78,6.41-4.17,11.18-7.16,24.47-13.91,37.99-19.65,13.5-5.78,27.2-10.51,38.73-14.74,2.58-.95,5.6-1.91,8.95-2.71,3.34-.83,6.96-1.66,10.74-2.3,1.9-.33,3.81-.66,5.73-1,1.94-.27,3.88-.54,5.82-.81,3.87-.57,7.71-.95,11.35-1.39,13.58-1.54,27.36-2.08,41.13-1.64,13.77.46,27.51,1.93,41.09,4.31l-3.04-2.09c-5.1-1.3-10.53-2.73-15.36-3.51-2.25-.4-4.41-.69-6.5-.91-2.08-.23-4.09-.42-6.04-.58-3.94-.22-7.65-.4-11.45-.42-3.8-.02-7.62-.08-11.77-.04-2.09,0-4.23-.02-6.47-.03-2.26.02-4.62,0-7.12-.03-11.17-.05-21.66.88-31.83,2.37-10.15,1.59-19.98,3.68-29.9,6.2-2.6.66-6.71,1.17-12.21,2.22,4.76-1.75,7.8-2.78,10.84-3.83l-.93-.59c-2.52.45-5.24.94-7.84,1.4-2.61.45-5.03,1.09-7,1.69-24.01,7.55-45.94,18.05-65.73,30.02-2.52,1.46-4.88,3.06-7.31,4.59-2.41,1.55-4.83,3.08-7.13,4.71l-6.96,4.82c-2.27,1.64-4.49,3.32-6.73,4.97l-3.34,2.5-3.24,2.56-6.42,5.14c-2.1,1.74-4.14,3.51-6.2,5.26-2.05,1.76-4.12,3.5-6.07,5.32-10.41,9.23-19.89,18.89-28.95,28.65l-6.68,7.36-6.39,7.43c-2.14,2.45-4.21,5-6.28,7.54-2.06,2.55-4.16,5.02-6.16,7.64l-1.21.56c2.06-2.73,4.2-5.37,6.34-8.02,2.15-2.64,4.27-5.34,6.48-7.91l6.62-7.79,6.92-7.72c9.37-10.24,19.28-20.31,30.02-29.99,21.49-19.31,46.04-37.4,74.69-52.05l-1.93.06c-2.11.94-4.14,1.97-6.39,3.09-2.24,1.14-4.73,2.34-7.55,3.85,3.82-2.44,7.37-4.56,10.69-6.58,3.39-1.95,6.63-3.75,9.87-5.55l-1.98.39-7.99,3.76-7.76,3.98c-2.6,1.31-5.09,2.73-7.59,4.13-2.48,1.42-5.04,2.77-7.43,4.26l-7.25,4.41c-2.41,1.47-4.7,3.04-7.04,4.56-4.71,3.02-9.14,6.25-13.63,9.43-.98.2-1.94.4-2.89.62,3.33-2.9,6.66-5.68,9.96-8.5,3.37-2.77,6.83-5.48,10.41-8.25,3.69-2.68,7.5-5.44,11.7-8.16,4.26-2.67,8.73-5.49,13.87-8.15,9.92-5.36,19.88-10.19,30.06-14.65,2.57-1.09,5.13-2.17,7.69-3.26l7.87-3.03c2.62-1.03,5.32-1.94,8.03-2.85,2.72-.9,5.42-1.86,8.23-2.65l8.37-2.42,8.53-2.14c2.84-.73,5.75-1.29,8.65-1.91l4.36-.89,4.4-.77c11.75-2.06,23.78-3.42,35.9-3.99l-3.07-.96c-17.02.76-33.76,2.99-49.82,6.59-16.07,3.58-31.47,8.43-46.01,14.25-14.55,5.82-28.24,12.58-41.09,19.99-12.87,7.39-24.86,15.47-36.11,23.96-22.55,16.97-42.16,35.58-59.94,54.94-2.27,2.41-4.42,4.85-6.56,7.29-2.14,2.45-4.31,4.85-6.42,7.35-2.1,2.5-4.21,5-6.32,7.51-2.12,2.48-4.14,5.11-6.22,7.66-8.23,10.28-16.23,20.91-23.83,31.99,9.92-15.23,20.69-29.92,32.14-43.98l4.3-5.28,4.4-5.15,4.43-5.16,4.61-5.12,4.65-5.12c1.57-1.7,3.21-3.37,4.82-5.06l4.87-5.05c1.64-1.67,3.36-3.32,5.04-4.98l-1.43.41c-3.29,2.98-6.39,6.06-9.52,9.12-1.55,1.53-3.14,3.05-4.65,4.6l-4.5,4.66-4.48,4.66-4.3,4.7c-2.86,3.14-5.72,6.25-8.48,9.5l-1.19.47c1.66-2.19,3.29-4.45,5-6.59l-.81.3c-5.04,5.64-10.04,11.28-14.87,17.15l.59-.4c2.32-3.05,4.66-6.11,7.07-9.07,2.41-2.96,4.78-6.01,7.24-8.91l7.41-8.75,7.78-8.7c10.56-11.54,21.89-22.86,34.24-33.77,12.34-10.9,25.71-21.39,40.3-31.14,14.59-9.74,30.42-18.75,47.52-26.53-2.42.77-4.54,1.53-6.48,2.33-1.91.82-3.66,1.65-5.36,2.47-5.01,2.36-9.79,4.92-14.56,7.48-2.41,1.25-4.68,2.63-7,3.96-2.3,1.35-4.64,2.66-6.87,4.05l-6.67,4.19-3.31,2.11-3.21,2.17-6.39,4.36c-2.11,1.47-4.13,2.99-6.19,4.48-16.37,12.01-31.18,24.84-44.78,38.12-3.41,3.32-6.67,6.7-9.99,10.05-3.27,3.37-6.39,6.8-9.57,10.2-3.15,3.41-6.11,6.86-9.16,10.29-3.03,3.43-5.96,7.01-8.93,10.52-11.77,14.2-23.01,29.06-33.5,44.69-15.66,23.27-29.23,47.94-40.21,73.14-11,25.19-19.33,50.87-25.45,75.78-3.19,12.91-5.64,25.45-7.76,37.64-2.13,12.2-3.92,24.08-5.77,35.53-1.19,7.33-2.35,14.41-3.55,21.12l-.9,4.9-.44,2.34-.11.59-.05.29-.03.2-.11.78c-.25,2.1-.54,4.25-.94,6.4-.78,4.32-1.86,8.76-3.46,13.14-1.6,4.38-3.78,8.65-6.61,12.55-2.82,3.92-6.41,7.25-10.43,10.06-4.04,2.78-8.56,4.94-13.35,6.58-4.8,1.65-9.87,2.8-15.13,3.62-2.65.45-5.28.71-8.09,1-3.17.14-6.56.38-9.35.36-3.01.15-5.77-.12-8.68-.22l-4.15-.49c-.72-.05-1.37-.19-2.03-.33l-2-.39c-5.3-1.1-10.29-2.81-14.94-5.32-4.65-2.51-8.99-5.85-12.94-10.11-3.96-4.24-7.47-9.42-10.44-15.25-2.98-5.83-5.44-12.28-7.43-19.09-1.03-3.39-1.83-6.92-2.65-10.47l-1.05-5.41c-.35-1.81-.59-3.66-.89-5.49-2.21-14.76-2.81-30.24-2.44-45.9.1-3.7-.39-6.63-.58-9.94l-.91,1.57c-.38,8.63-.38,17.17-.12,25.66.28,8.49.81,16.96,1.77,25.41,1.07,9.61,2.81,18.87,5.43,27.51,2.61,8.64,6.07,16.65,10.38,23.6,1.01,1.79,2.24,3.37,3.37,5,.54.84,1.2,1.56,1.82,2.32l1.84,2.25c2.65,2.77,5.28,5.44,8.27,7.59.75.54,1.43,1.14,2.2,1.64l2.32,1.46,1.14.74,1.23.63,2.41,1.29c.81.42,1.7.73,2.54,1.12.86.35,1.65.8,2.56,1.08.89.31,1.78.62,2.68.93l1.32.48,1.41.37c1.05.28,2.11.56,3.15.85,1.06.26,2.19.39,3.26.6l1.62.28c.53.1,1.07.19,1.65.22,1.12.09,2.23.19,3.35.28l1.65.14c.56.02,1.14,0,1.71.01,1.13,0,2.26,0,3.39.01,1.08.03,2.32-.03,3.53-.09l3.61-.16.9-.04.8-.08,1.57-.16,3.1-.34c2.05-.31,4.07-.58,6.07-.95,1.99-.41,3.96-.74,5.89-1.25.97-.24,1.93-.46,2.88-.72l2.84-.83c4.92-1.51,9.6-3.48,13.86-6.04,4.26-2.56,8.11-5.72,11.29-9.45,3.21-3.69,5.76-7.88,7.76-12.21,1.99-4.35,3.42-8.86,4.52-13.31.54-2.18,1.21-4.46,1.7-6.68l.46-.22c-.47,4.54-1.25,9.27-2.29,13.41,2.2-1.59,4.15-3.2,6.7-5.51-.34,1.02-.85,2.55-1.41,4.08.49-.38.95-.78,1.42-1.18.96-3.6,1.7-7.19,2.31-10.72l.46-2.65.68-3.43,1.36-7.12c1.77-9.73,3.42-19.94,5.17-30.48,3.5-21.09,7.53-43.33,13.26-65.88-3.77,17.98-7.06,36.38-10.38,54.79l-5.31,30.22c-.87,4.85-1.74,9.65-2.66,14.26l-.69,3.45-.69,3.31c-.26,1.22-.39,1.94-.56,2.81-.17.85-.29,1.72-.48,2.57-.68,3.44-1.52,6.91-2.51,10.4-1.03,3.48-2.24,6.96-3.72,10.4-2.98,6.82-7.13,13.41-12.73,18.67-2.79,2.62-5.87,4.98-9.19,6.98-3.34,1.95-6.87,3.65-10.56,5.01-7.39,2.74-15.32,4.34-23.56,5.32-2.06.29-4.14.4-6.24.6l-1.58.13-1.73.06-3.47.13-1.74.07h-1.65s-3.31-.02-3.31-.02h-1.67c-.56,0-1.08-.07-1.63-.1l-3.27-.23c-8.67-.75-17.13-2.65-24.83-6.38-10.96-4.97-20.33-13.74-27.55-24.88-3.64-5.55-6.63-11.72-9.13-18.2-2.5-6.48-4.59-13.27-6.12-20.27-1.55-6.99-2.81-14.16-3.57-21.45-.8-7.29-1.33-14.69-1.47-22.16-.14-3.74-.07-7.49-.08-11.27.11-3.77.15-7.57.37-11.37.34-7.62,1.01-15.28,1.84-23.02,1.02-9.32,1.63-18.03,2.61-26.89.09-.79-.59-.63-1.23-1.2-2,13.49-3.6,26.95-4.55,40.4-.94,13.45-1.39,26.87-.87,40.21l.21,4.99.33,4.99c.18,3.32.58,6.63.89,9.92.8,6.59,1.7,13.14,3.13,19.57l.5,2.41.59,2.39,1.2,4.76c.95,3.13,1.8,6.28,2.95,9.32,1.01,3.08,2.33,6.05,3.55,9.02,1.41,2.89,2.72,5.81,4.36,8.54.76,1.36,1.51,2.71,2.39,3.98.86,1.28,1.67,2.58,2.57,3.81l2.79,3.58c.44.61.97,1.15,1.47,1.7l1.51,1.65c.51.54.99,1.1,1.51,1.63l1.62,1.5,1.61,1.49.8.74.86.67,3.42,2.66c1.19.81,2.41,1.57,3.6,2.35,1.16.82,2.45,1.44,3.7,2.1,1.26.64,2.45,1.38,3.78,1.87l3.87,1.64c1.32.48,2.67.88,3.98,1.32l1.98.65,2.05.49,4.05.96,4.14.66,2.05.33,2.1.18,4.17.36c1.39.1,2.82.07,4.22.11,1.42.01,2.77.09,4.22.05l4.34-.11,2.16-.05,2.04-.13,4.04-.27c1.34-.1,2.68-.27,4.01-.4,1.33-.14,2.66-.26,3.97-.47,5.28-.66,10.45-1.74,15.49-3.09,5.05-1.36,9.95-3.21,14.59-5.58-6.45,3.61-13.58,6.21-21.06,7.89-7.49,1.71-15.3,2.67-23.41,3.13l-6.41.21c-2.12.03-4.16-.04-6.27-.05l-1.58-.02-1.55-.12-3.11-.25c-2.11-.1-4.13-.48-6.2-.79-8.22-1.33-16.28-3.88-23.75-7.96-.47-.25-.96-.48-1.41-.75l-1.35-.86-2.72-1.72c-.47-.28-.9-.59-1.32-.93l-1.29-.98-2.6-1.98-2.43-2.19c-.79-.75-1.68-1.43-2.41-2.26l-2.28-2.42-1.15-1.22c-.36-.42-.7-.86-1.06-1.3-5.73-6.88-10.39-14.9-14.06-23.45-3.67-8.56-6.37-17.64-8.36-26.91-1.99-9.28-3.26-18.75-4.04-28.29-1.54-19.09-1.12-38.42.46-57.66,1.57-19.26,4.3-38.49,7.84-57.63,3.53-19.15,7.86-38.22,12.85-57.21,5-19,10.61-37.91,16.97-56.83l-.95.56c-1.9,5-3.74,10.01-5.55,15.02l-.57.32c1.59-5.73,3.24-11.45,4.95-17.18l2.64-8.61,1.38-4.34.72-2.2.37-1.12.43-1.23-1.12.71c-1.69,4.3-3.18,8.32-4.68,12.44-1.49,4.1-2.95,8.18-4.36,12.27-2.84,8.18-5.56,16.37-8.17,24.59-5.23,16.44-10.03,33-14.36,49.72l-.82.66c3.79-16.77,8.07-33.4,12.77-49.94,2.35-8.27,4.8-16.52,7.38-24.76,2.59-8.26,5.24-16.42,8.22-24.86-4.41,8.45-7.98,16.23-10.76,23.93-7.39,20.53-13.94,41.22-19.52,61.95-4.75,17.79-8.46,35.38-11.86,53.42-1.69,8.98-3.27,18.03-4.66,27.16-1.36,9.13-2.54,18.33-3.46,27.58l-1.09,1.07c2.03-24.11,5.75-47.79,10.47-71.15,4.75-23.35,10.46-46.4,16.98-69.23-10,29.29-17.47,58.33-22.77,87.52-2.61,14.61-4.73,29.23-6.12,44-1.42,14.76-2.21,29.64-2.05,44.75-.01,3.77.17,7.6.29,11.39.08,1.9.22,3.82.33,5.73.1,1.9.23,3.81.43,5.73.59,7.63,1.68,15.35,3.04,23.03,1.38,7.69,3.35,15.4,5.78,23.02l1.96,5.7,2.27,5.66.57,1.41.65,1.4,1.31,2.79c.44.93.86,1.85,1.32,2.77l1.48,2.73c3.95,7.25,8.64,14.26,14.4,20.47,5.7,6.22,12.27,11.67,19.36,16.03,7.07,4.43,14.72,7.56,22.36,9.78,3.81,1.21,7.68,1.9,11.5,2.68,1.92.32,3.84.53,5.75.79l2.86.36,2.85.19c-1.2.32-2.82.37-4.57.14l-5.32-.6c-.45-.05-.89-.1-1.34-.16l-1.33-.24-2.68-.5c-3.59-.57-7.14-1.61-10.73-2.58-7.1-2.27-14.22-5.21-20.88-9.3-6.64-4.09-12.85-9.08-18.38-14.77-5.44-5.75-10.13-12.12-14.16-18.79l-2.86-5.06c-.91-1.7-1.71-3.43-2.56-5.16-.41-.87-.86-1.73-1.24-2.6l-1.11-2.62c-.71-1.75-1.52-3.51-2.14-5.27l-1.91-5.31c-.64-1.78-1.12-3.55-1.68-5.33-1.16-3.57-1.96-7.12-2.91-10.71-3.31-14.27-5.17-28.55-6.03-42.61-.75-11.81-.39-24.35.02-36.08.4-11.74.83-22.7-.01-31.62-.57,3.57-1.1,6.68-1.57,9.82l-.66.62c1.45-20.55,3.97-40.83,7.27-60.85,3.29-20.03,7.31-39.84,11.9-59.5l-.8.42c-2.93,9.05-5.74,18.16-8.41,27.33l-.7.31c4.02-19.89,8.66-39.58,13.87-59.18l-1.07.8c-4.71,14.55-9.07,29.2-12.73,42.53,2.91-15.79,6.41-32.4,10.33-49.01l-.95.79c-3.04,9.3-5.99,18.61-9.37,30.12.79-3.98,1.19-5.99,1.97-9.92-4.56,13.37-8.25,24.73-12.62,39.43,2.09-11.54,3.9-20.49,5.79-29.43l-1.04.97c-2.79,9.55-5.45,19.16-8.23,29.95.15-3.01.25-5.01.34-7.01l-.94,1.7c1.25-6.17,2.54-12.33,3.9-18.47l-.67-.17c-1.72,4.38-3.42,8.78-5.27,13.75,1.02-5.32,2-10.2,3.22-15.99-2.63,7.2-4.7,13.19-6.76,19.19l-.97.67c.89-5.1,1.81-10.2,2.86-15.7-4.38,15.5-11.12,31.15-13.5,46.87-.08.53-.53,1.57-1.62,4.68,2.17-13.59,4.29-24.98,6.57-36.32l-.43.47c-1.54,5.95-3.01,11.95-4.75,19.36,1.74-12.8,3.51-24.08,5.7-36.66-3.91,12.45-7,23.07-9.94,33.8l-.78.27c1.47-9.12,3.09-18.16,4.83-27.17l-.66.66c-1.15,3.85-2.25,7.74-3.36,11.63l-.51.48c2.62-12.84,5.46-25.57,8.89-39.6-6.42,18.69-11.65,35.42-16.48,52.48l-.72.11c.57-3.24,1.12-6.49,1.99-11.13-2.3,7.13-3.95,12.53-6.19,20.05.46-4.18.66-5.99.86-7.81l-.58.76c-4.53,21.79-8.33,44.05-11.02,67.15l-.41.35c2.31-27.28,6.17-53.51,10.99-79.21l-1.04,1.14c-.75,2.37-1.5,4.74-2.39,7.57-.06-2.3-.12-4.17-.21-7.61-3.81,15.28-6.69,28.21-9.31,41.36l-1.34,1.42c1.21-9.4,2.58-18.68,4.06-27.9l-.91.95c-3.76,16.81-7.1,33.87-9.75,51.5-2.67,17.59-4.65,35.76-5.63,54.74-.47,9.52-.63,19.3-.48,29.31.24,10.11.82,20.48,1.97,31.25,1.23,10.85,3.03,22.1,5.77,33.85.74,2.98,1.49,5.96,2.27,8.92.85,3.03,1.81,6.12,2.75,9.16l.72,2.28.83,2.35,1.69,4.7c.59,1.57,1.12,3.09,1.77,4.69l2.02,4.8c5.56,12.99,12.91,26.41,22.61,39.22,2.51,3.2,5.01,6.35,7.68,9.43,2.78,3.06,5.61,6.06,8.5,8.99,3.02,2.87,6.12,5.66,9.26,8.38,3.18,2.67,6.53,5.16,9.86,7.63,13.49,9.65,28.08,16.8,42.2,21.63l5.28,1.71,2.64.82,1.32.4,1.28.33c3.42.87,6.85,1.68,10.27,2.45,1.74.42,3.34.65,5.01.94l4.95.8,4.94.74,4.73.46,4.72.41,2.36.19c.77.06,1.62.13,2.25.14l8.16.24c2.44.07,6.11.11,9.36.1,3.32-.02,6.63-.03,9.92-.19,13.19-.45,26.18-2.01,38.72-4.81,12.54-2.8,24.64-6.85,35.99-12.31,5.69-2.69,11.15-5.81,16.43-9.16,2.63-1.69,5.18-3.51,7.72-5.31l3.69-2.88c1.22-.97,2.45-1.92,3.61-2.96,9.44-8.07,17.82-17.26,24.93-27.32,7.1-10.07,13-20.93,17.9-32.18,1.23-2.81,2.42-5.64,3.5-8.51,1.11-2.86,2.17-5.72,3.16-8.62,1-2.89,1.96-5.78,2.86-8.69l1.34-4.36c.25-.81.34-1.23.5-1.81l.43-1.64c.58-2.19,1.17-4.42,1.63-6.42.48-2.04,1-4.13,1.43-6.1l1.31-5.93,1.21-5.79c1.55-7.62,2.9-14.87,4.21-21.93,1.28-6.86,2.56-13.71,3.84-20.55,1.28-6.68,2.58-13.21,3.96-19.6,1.37-6.42,2.83-12.71,4.4-18.92,1.53-6.24,3.27-12.32,5.04-18.42,1.85-6.03,3.74-12.08,5.86-17.99,2.06-5.96,4.36-11.79,6.71-17.64,2.44-5.79,4.94-11.57,7.67-17.25,10.82-22.77,24.22-44.59,39.64-65.22,7.73-10.36,16.06-20.54,24.6-30.2,8.57-9.68,17.56-18.82,26.99-27.41,18.84-17.19,39.62-31.9,62.63-42.73,11.4-5.38,23.31-9.63,35.64-12.86,12.34-3.09,25.1-5.11,38.13-5.7,26.04-1.28,53.02,2.88,78.99,11.89-1.51-1.68-2.23-2.52-3.13-3.48-23.81-8.07-48.13-12.32-72.79-11.93,8.83-2.84,22.6-2.91,36.9-.68,7.16,1.07,14.45,2.63,21.41,4.31,6.97,1.68,13.59,3.52,19.54,4.94-27.43-9.41-56.17-13.7-83.75-11.98-.55-.26-1.09-.53-1.64-.77,13.13-1.18,26.54-1.12,40.15.36,19,2.05,38.03,6.74,56.49,13.55,18.48,6.85,36.35,15.74,53.48,26.75,2.15,1.36,6,3.97,5.83,3.56-1.13-2.81.72-1.92,3.27-.13,2.55,1.8,5.77,4.62,7.44,5.43,1.26.59,4.19,3.41,6.67,5.82l-.44-.79-.49-.84-.91-1.56c-2.49-2.17-4.86-4.09-7.25-5.95-2.38-1.87-4.76-3.62-7.15-5.35-4.78-3.43-9.61-6.66-14.51-9.72l-.94-1.31c4.81,2.26,9.59,4.69,14.35,7.29l-.76-1.16c-5.63-3.79-11.31-7.34-17.09-10.66l-.82-1.05c1.73.58,3.43,1.21,6.39,2.29-7.57-4.89-13.26-8.18-19.02-11.33l-.83-1.12c4.7,2.03,9.33,4.22,13.95,6.52l-.6-.87c-3.06-1.81-6.11-3.62-11.53-6.53,5.13,2,8.26,3.34,12.8,5.35-14.15-8.68-27.08-15.17-40.4-20.75-.27-.38-.55-.76-.83-1.13,2.26.67,4.51,1.38,6.78,2.09,2.24.75,4.5,1.48,6.74,2.28-.72-.69-1.46-1.36-2.2-2.04-6.06-2.41-12.21-4.57-18.66-6.6.46-.92.88-1.78,1.44-2.91-3.89-1.49-6.71-2.41-9.49-3.38l-.72-.63c10.89,2.54,21.65,5.8,32.27,9.65l-.83-.89c-5.36-2.42-10.76-4.73-18.84-7.75,2.88-.25,4.52-.33,5.48-.39-17.33-7.85-35.95-14.14-55.18-18.12-.42-.36-.83-.72-1.26-1.07,12,.95,23.99,2.81,35.86,5.43,11.87,2.62,23.57,6.09,35.07,10.2l-.95-1.22c-15.24-6.75-31.15-12.2-47.45-16.18-8.14-2.01-16.41-3.58-24.72-4.76-8.31-1.18-16.67-2-25.04-2.3-9.44-.06-18.83.43-28.09,1.43-9.26,1.05-18.38,2.65-27.28,4.7-8.91,2.02-17.57,4.7-25.99,7.66-8.42,2.96-16.51,6.51-24.38,10.22l-2.64.03c1.9-.98,3.85-1.88,5.81-2.76,1.96-.88,3.92-1.8,5.9-2.66,4.01-1.63,8.01-3.36,12.15-4.81,8.21-3.07,16.72-5.64,25.43-7.78,8.7-2.18,17.64-3.8,26.71-4.95,9.07-1.15,18.29-1.81,27.56-1.86.44-.52-.07-1.3,1.49-1.53,7.62-1,15.42-1.87,24.32-1.7,6.02.1,9.23-.02,5.04-2.79-4.68-3.04-10.16-3.89-17.68-4.24-3.29-.11-6.67-.23-10.09-.35-3.44-.01-6.9-.13-10.3-.01-14.49.32-28.84,1.87-42.75,4.59-13.91,2.76-27.36,6.66-40.17,11.5l-.87-.05c11.99-4.91,24.61-8.99,37.34-12,12.73-3.02,25.55-4.96,37.83-5.92.06-1.12-.99-1.85.36-2.21,2.08-.58,5.81-.69,8.86-1l-3.66-1.47Zm-333.2,515.5c.86-.17,1.71-.37,2.55-.59-8.33,7.16-17.64,13.19-27.53,18.15-9.89,4.97-20.41,8.83-31.33,11.57-10.91,2.77-22.2,4.5-33.68,5.42-5.75.36-11.53.69-17.35.68h-4.37s-4.1-.04-4.1-.04l-7.24-.18-1.82-.05-.92-.03-1.04-.08-4.15-.32c-2.78-.24-5.51-.44-8.35-.79-2.89-.41-5.78-.85-8.67-1.33l-2.17-.36c-.72-.11-1.45-.25-2.21-.43l-4.5-1.01-4.49-1.07-2.25-.56c-.75-.19-1.53-.45-2.3-.68-3.08-.94-6.15-1.92-9.21-2.95-1.52-.47-3.1-1.17-4.65-1.77l-4.66-1.91c-1.55-.67-3.09-1.28-4.64-2.02l-4.65-2.32c-6.19-3.03-12.26-6.83-18.17-10.8-2.91-2.1-5.79-4.26-8.63-6.47-2.81-2.24-5.47-4.67-8.15-7.08-10.54-9.79-19.52-20.9-26.74-32.25-7.23-11.38-12.57-22.81-16.85-33.97l-1.54-4.17c-.5-1.39-1.03-2.81-1.44-4.14-.87-2.71-1.72-5.44-2.55-8.17-.8-2.71-1.45-5.32-2.15-8-.34-1.32-.7-2.69-1-3.99l-.85-3.89-.83-3.9c-.28-1.31-.54-2.61-.76-3.86l-1.32-7.61c-.42-2.53-.71-4.96-1.06-7.45l-.49-3.72-.39-3.63-.71-7.25-.5-7.09c-.18-2.39-.27-4.7-.37-7.01-.09-2.31-.2-4.66-.25-6.94-.39-18.27.4-35.74,2.01-52.57l.62-6.32.71-6.24c.46-4.19,1.04-8.25,1.58-12.39,1.17-8.16,2.43-16.3,3.88-24.28l1.09-1.09c-2.52,15.65-4.65,31.58-6.06,48.1l-.52,6.19-.42,6.28c-.3,4.15-.45,8.47-.66,12.69-.28,8.61-.46,17.26-.22,26.26.05,4.43.31,9.05.52,13.6.12,2.29.32,4.66.49,6.97.17,2.32.35,4.65.62,7.06l.77,7.14,1.01,7.32c.18,1.23.33,2.42.54,3.67l.65,3.76.67,3.75c.22,1.24.45,2.49.74,3.79l1.68,7.68c.59,2.57,1.33,5.25,2.01,7.86.36,1.32.69,2.61,1.07,3.94l1.25,4.04,1.28,4.02.65,2.01.74,2.07c1,2.75,2.03,5.49,3.08,8.21,1.16,2.79,2.39,5.6,3.62,8.36l.93,2.08,1.04,2.12,2.14,4.23,2.19,4.19,2.48,4.24c3.22,5.6,7.09,11.22,11.14,16.66,2.14,2.73,4.33,5.42,6.56,8.07,2.3,2.63,4.78,5.2,7.22,7.73,10.01,10.05,21.6,18.8,33.74,25.62,12.18,6.84,24.66,11.44,36.7,14.69,2.98.74,5.96,1.44,8.94,2.11,1.52.37,2.91.54,4.36.81l4.32.7,4.32.66c1.44.22,2.79.3,4.18.45,2.77.26,5.53.5,8.29.71l1.03.08.91.03,1.82.06,3.63.11c2.46.07,4.63.14,7.77.16,2.91.02,5.83.01,8.73-.03,2.9-.06,5.79-.2,8.68-.34,11.53-.67,22.93-2.02,33.96-4.61,11.03-2.54,21.72-6.09,31.8-10.83,10.08-4.73,19.6-10.56,28.2-17.52Zm-207.19-196.59l-1.44,1.68c1.07-24.21,4.12-48.22,8.26-71.97,4.16-23.75,9.48-47.25,15.6-70.55l1.38-1.04c-6.1,23.22-11.35,46.64-15.52,70.28-4.13,23.64-7.17,47.54-8.28,71.6Zm263.16,108.97l1.32-1.27-.41,1.51c-.15.54-.23.92-.46,1.65l-1.22,3.95c-.82,2.64-1.68,5.26-2.59,7.88-.9,2.62-1.82,5.24-2.83,7.82-.99,2.59-1.99,5.19-3.1,7.73-4.34,10.23-9.48,20.15-15.62,29.43-6.12,9.29-13.27,17.91-21.39,25.6-2.02,1.94-4.15,3.74-6.26,5.59-2.17,1.77-4.37,3.51-6.6,5.2-2.3,1.6-4.58,3.25-6.94,4.76-2.39,1.47-4.75,3.01-7.22,4.36-9.8,5.54-20.28,9.97-31.21,13.28-10.93,3.33-22.31,5.48-33.9,6.78-2.9.29-5.81.63-8.74.81-2.93.19-5.86.34-8.81.47-2.94.13-5.9.14-8.86.17-2.92.02-6.15,0-8.36-.06l-7.34-.17c-.64-.03-1.17-.02-1.89-.07l-2.1-.15-4.22-.33-4.22-.37-2.11-.2-2.2-.31c-2.94-.42-5.87-.88-8.81-1.36l-1.54-1.11c2.92.49,5.84.95,8.76,1.38,1.45.21,2.93.44,4.36.6l4.2.38c2.8.24,5.59.46,8.38.65l7.31.18,3.64.07,4.34.02c2.95,0,5.88-.04,8.81-.1,5.86-.25,11.69-.5,17.45-1.16,5.78-.53,11.48-1.45,17.13-2.43,2.81-.58,5.61-1.18,8.39-1.81,2.78-.63,5.51-1.44,8.25-2.19,10.9-3.17,21.37-7.43,31.18-12.82,19.69-10.68,36.38-26.22,48.69-44.55,6.2-9.15,11.41-18.94,15.81-29.06,1.09-2.53,2.18-5.07,3.15-7.65.99-2.57,1.98-5.14,2.87-7.74.9-2.6,1.8-5.19,2.62-7.81l1.23-3.92c.39-1.27.85-2.75,1.07-3.62Z"/>
  <path class="cls-1" d="m284.73,396.92l-.42-.42-.07-.19c.26-1.01.39-2.13.77-3,.37-.85.77-1.65,1.14-2.42.36-.78.69-1.52,1-2.19-.38-.56-.58-.87-.82-1.23-2.46,4.78-5.46,9.64-8.97,14.25l-.37-.46,2.3-3.48c.73-1.18,1.43-2.38,2.11-3.54l-.35-.41c-.68.96-1.36,1.94-2.08,2.9l-2.23,2.83-.21-.28,1.11-2.38-.24-.25c-5.39,7.04-11.91,13.77-19.4,19.96l-.19-.34c2.78-2.31,5.37-4.93,7.87-7.36,2.46-2.62,4.82-5.09,6.97-7.8l-.31-.46c-4.64,5.49-9.93,10.92-15.93,15.72-.76.61-1.52,1.23-2.27,1.84-.77.59-1.56,1.14-2.35,1.71-1.59,1.13-3.21,2.27-4.88,3.37-1.67,1.03-3.39,2.05-5.14,3.05-.88.5-1.76,1.01-2.66,1.48-.91.44-1.82.88-2.73,1.32,2.84-1.73,5.68-3.5,8.41-5.23l2.08-1.33c.68-.46,1.36-.96,2.03-1.43,1.34-.96,2.65-1.93,3.94-2.89,1.27-.92,2.5-1.97,3.71-2.97,1.21-1.01,2.38-2.03,3.51-3.08,2.21-2.22,4.24-4.47,6.18-6.8l-.29-.42c-.86.83-1.76,1.54-2.66,2.32,2.17-2.73,4.31-5.45,6.22-8.17,1.22-1.84,2.58-3.44,3.81-5.12,1.22-1.71,2.26-3.6,2.87-5.93.55-2.08,1.83-3.62,2.65-5.41.77-1.68,1.41-3.46,2.05-5.15.63-1.7,1.13-3.48,1.64-5.16l-.58-.78c-.33.27-.72.45-.97.84-.93,1.51-1.02,4.07-2.3,5.52-.71.81-1.37,1.77-1.98,2.84-.62,1.07-1.23,2.22-1.96,3.18-.19.26-.61.17-1.11.28.29-.76.47-1.24.65-1.72l-.22-.58c-.44.15-1,.1-1.29.5-3.55,4.73-7.63,9.49-12.26,13.88-.75.72-1.5,1.49-2.28,2.18l-2.36,2.11-2.43,2.14c-.82.71-1.67,1.35-2.52,2.03l-.19-.39c7.06-5.94,13.17-12.38,18.18-19.12l-.28-.48c-.39.34-.78.68-1.33,1.16.67-1.31,1.17-2.34,1.67-3.37l-.24-.23c-1.85,1.95-3.87,3.67-5.94,5.55l-.41-.77c1.48-2.65,2.59-5.55,4.34-7.63,1.69-2.09,3.01-4.65,4.28-7.07,1.31-2.33,2.42-4.78,3.46-7.11l-.4-.6c-3.06,5.87-6.95,12-11.77,17.67-4.82,5.66-10.58,10.89-17.28,15.06l1.68-1.33,1.64-1.43,3.17-2.83c1.04-.9,2.03-1.95,3.01-2.93l2.87-2.94-.2-.45c-1.79,1.37-3.62,2.86-5.54,4.22l-.16-.4c.3-.38.6-.74.89-1.14l-.11-.27-2.55,1.64.09.11c6.86-6.67,12.54-13.88,16.87-21.33-.4,0-.65.29-.89.63-5.5,7.72-12.57,15.37-21.35,21.25l-2.48,1.64c-.84.56-1.68,1.11-2.55,1.6-1.76,1.03-3.52,2.06-5.29,3.1-1.8,1-3.65,1.93-5.53,2.93-.94.49-1.89,1.02-2.85,1.49-.97.46-1.94.92-2.91,1.38-1.01.48-2.03.99-3.06,1.51-1.03.51-2.07,1.08-3.11,1.54-2.09.96-4.24,1.91-6.44,2.78-11.26,4.26-23.61,7.34-36.68,8.94-3.24.33-6.54.61-9.9.85-1.69.15-3.34.15-5.02.18-1.7.01-3.38.02-5.07.03-1.72-.02-3.43-.03-5.14-.05-1.7-.09-3.4-.21-5.12-.33-3.42-.27-6.92-.53-10.39-.99-.81-.12-1.7.24-2.55.37l.02.66c.94.12,1.9.24,2.85.37.97.08,1.93.16,2.9.24,1.92.16,3.83.35,5.7.63,2.14.31,4.25.59,6.4.71,2.16.1,4.3.15,6.42.22,2.12.06,4.23.14,6.32.27,2.12.04,4.22.15,6.3.37,2.36.23,4.73.18,7.13-.15,2.4-.35,4.78-.82,7.1-1.17,1.52-.24,3.03-.46,4.53-.75,1.49-.33,2.99-.66,4.48-.99l4.4-1.02c.73-.17,1.45-.33,2.17-.52l2.16-.62c.7-.2,1.43-.27,2.14-.4l.04.31c-1.51.69-3.02,1.37-4.33,1.97.46,1.09.89,2.09,1.45,3.39-.3.02-.76.05-1.21.08l.29.74c4.32-1.24,8.51-2.39,12.6-3.95,2.04-.74,4.05-1.44,6.02-2.22l5.83-2.51c-3.09,1.93-6.39,3.7-9.84,4.76-15.56,5.23-32.92,8.39-51.16,9.36-3.23.26-6.41.29-9.67.38-1.64.03-3.28.05-4.9.08-1.65.02-3.31.02-4.93-.08-6.53-.34-13.27-.88-19.8-2.58-1.98-.48-4.1-.48-6.18-.65-.18-.02-.4.46-.81.95,2.96.59,5.91,1.17,8.84,1.75,1.45.28,2.9.56,4.34.84,1.47.22,2.93.44,4.39.66,2.89.42,5.77.84,8.64,1.27,1.41.23,2.87.35,4.31.51,1.43.15,2.86.3,4.29.44,1.4.14,2.79.26,4.17.35,1.38.1,2.76.16,4.16.12,2.79-.02,5.55-.12,8.27-.23,1.37-.07,2.71-.09,4.07-.21,1.36-.11,2.72-.23,4.07-.34,2.7-.22,5.36-.37,8.01-.49-31.43,5.5-66.79,1.69-100.26-10.21l-.17.55,3.09,1.58-.12.34-8.18-1.78-.2.6,10.54,4.48,5.24,2.2,5.35,2.01-.11.5-5.69-1.47c-1.88-.53-3.72-1.1-5.59-1.66l-11.28-3.45c1.34,1.52,2.73,2.79,4.34,3.57,2.16,1.05,4.32,2.07,6.5,3.05,1.08.48,2.17.95,3.27,1.44,1.11.44,2.25.85,3.37,1.26,3.87,1.39,7.83,2.39,11.68,3.61,3.93,1.15,7.78,2.27,11.67,3.41l-.16.79c-10.37-2.38-20.66-5.32-30.92-8.65,2.9,1.7,6.02,3.03,9.13,4.24,3.11,1.21,6.24,2.27,9.38,3.24,3.21.87,6.44,1.63,9.64,2.35,3.21.71,6.36,1.43,9.63,1.96,3.25.58,6.47,1.12,9.67,1.64.8.13,1.59.26,2.4.38l2.44.29,4.84.55,4.8.52,2.39.24,2.42.15c3.19.19,6.38.38,9.56.56-.36.3-.72.36-1.09.36-3.02,0-6.04.01-9.06.02h-2.3s-2.27-.1-2.27-.1l-4.56-.22c-3.05-.16-6.16-.28-9.24-.52-3.07-.29-6.15-.57-9.23-.86-2.59-.27-5.28-.8-7.86-1.21-2.61-.37-5.24-.43-7.92.48.71.31,1.33.58,1.95.85l-.1.47c-9.52-1.05-18.85-2.75-28.44-4.52l-.17.5c1.87.99,3.78,1.95,5.67,2.91l-.17.46c-2.38-.44-4.81-.86-7.19-1.34l-7.09-1.57-.14.62c3.22,1.35,6.33,2.76,9.33,3.85-1.01-.09-2.04-.18-3.08-.27-1.02-.12-2.05-.24-3.09-.36-2.09-.25-4.21-.51-6.34-.77l-.09.54c2.05.88,4.1,1.75,6.61,2.83-1.03-.09-1.54-.14-2.56-.24,2.7,1.63,5.12,2.87,8.15,4.5-2.9-.35-5.2-.6-7.46-.92l-.08.61c2.13.86,4.29,1.68,6.68,2.6-.91.19-1.52.31-2.13.44l.19.48-4.57-.8-.32.48c.81.71,1.61,1.42,2.52,2.22-1.34-.19-2.58-.36-4.06-.57,1.41,1.02,2.58,1.87,3.74,2.71l-.16.62c-1.32-.13-2.64-.27-4.06-.41,3.48,1.39,5.9,4.7,9.77,5.23.13.02.27.27.79.82-3.28-.6-6.06-1.11-8.84-1.62v.26c1.33.51,2.67,1.01,4.32,1.63-3.33-.18-6.31-.36-9.66-.58,2.66,1.42,4.9,2.61,7.14,3.81l-.21.53-6.89-.94-.04.4,2.51,1.25-.04.31c-1.58-.34-3.15-.68-4.77-1.03-1.62-.36-3.32-.71-5.01-1.15.48.3.96.6,1.42.89.48.28.96.56,1.44.83.95.55,1.87,1.08,2.78,1.61,1.82,1.05,3.58,2.07,5.34,3.08l-.24.5c-.81-.14-1.61-.27-2.78-.47,1.42.99,2.48,1.73,3.94,2.75-1.12,0-1.61-.01-2.1-.02l.02.35c2.55.74,5.04,1.52,7.63,2.2l7.77,1.98-.06.28c-3.21-.46-6.44-.93-9.68-1.44l-9.53-1.76-.03.63c.47.34.93.67,1.48,1.07-.75.23-1.36.42-2.49.76,3.43,1.42,6.22,2.62,9.1,3.75l-.09.88c-2.34-.32-4.55-.74-6.85-1.12l-.05.57c1.88.73,3.7,1.5,5.64,2.17,1.92.66,3.85,1.33,5.78,1.99,3.86,1.29,7.66,2.57,11.53,3.75,3.94,1.11,7.88,2.18,11.79,3.19,1.97.5,3.88,1.03,5.9,1.46,2,.42,4,.84,6.01,1.27,2.04.42,4.07.82,6.1,1.19,2.03.38,4.03.75,6.12,1.01,4.13.57,8.22,1.06,12.28,1.49,2.01.24,4.1.34,6.15.48,2.04.11,4.09.22,6.14.33,2.04.09,4.05.2,6.09.24,2.04,0,4.09,0,6.14,0,2.01-.03,4.04-.05,6.06-.08,1.01-.02,2-.03,3.01-.08l3.04-.18c4.04-.27,8.02-.54,11.98-.93,4-.48,7.94-1.01,11.83-1.57,1.93-.25,3.91-.68,5.84-1.02,1.92-.37,3.85-.75,5.77-1.12,15.32-3.21,30.1-7.76,43.4-14.15,13.38-6.41,25.34-14.49,35.57-23.57,5.06-4.58,9.67-9.34,13.81-14.39,2.09-2.47,4.03-5.07,5.9-7.6,1.84-2.6,3.62-5.16,5.26-7.78-.63-.46-.93-.68-1.3-.95-1.53,2.26-3.19,4.39-4.88,6.61-1.73,2.13-3.51,4.37-5.45,6.5.64-3.62,2.41-6.45,4.3-9.09,1.86-2.68,3.84-5.21,4.76-8.3-3.18,5.29-6.86,10.55-10.97,15.6l-.48-.38c.93-1.33,1.84-2.65,2.72-3.96.86-1.35,1.71-2.69,2.57-4.02,2.35-3.72,4.46-7.51,6.33-11.27,1.83-3.8,3.47-7.6,4.54-11.3.13-.46.34-1.29.21-1.4-.84-.75-.86-1.33-.74-1.84.09-.51.34-.95.2-1.5.03-.5.77-1.12,1.19-1.7l-.94-.15-.67.96c-.07.09-.07.14-.08.19l-.03.16-.07.32c-.1.43-.18.85-.36,1.31l-.48,1.36c-.17.46-.38.92-.58,1.38l-.35-.21c.13-1.28.23-2.55.23-3.79l-.28-.18c-.14.54-.32,1.09-.53,1.65l-.61,1.68-.28-.16c-.02-.54-.05-1.08-.09-2.02-.63,1.26-1.25,2.18-1.78,3.13l-.33-.26c.27-1.05.52-2.08.76-3.11l-.25-.18c-.28.51-.56,1.02-1.04,1.91.18-1.29.29-2.07.42-3.21-1.3,2.2-2.61,4.15-4.01,6.07l-.37-.39c.3-.99.57-1.97.81-2.97l-.58-.32c-.45,1.13-.96,2.24-1.49,3.42-.34-.79-.65-1.53-1.06-2.5-.39.54-.67.93-.95,1.32l-.21-.18c.72-2.22,1.42-4.4,1.97-6.59l-.25-.2c-.44.8-.96,1.56-1.68,2.72-.2-1.27-.31-2-.37-2.42-.48.44-.96.88-1.44,1.33-.51.43-1.01.86-1.52,1.3l-1.55,1.32-1.62,1.27-.39-.49c1.81-4.29,3.25-8.68,4.37-12.93l-.36-.39c-2.33,3.99-5.24,7.94-8.45,11.82-3.28,5.4-7.16,10.62-11.49,15.74l-.52-.59,1.59-1.82,1.53-1.88c1.01-1.25,1.99-2.48,2.95-3.73,1.88-2.57,3.69-5.05,5.32-7.66-.1-.47-.35-1.01-.28-1.39.38-1.87.74-3.71,1.2-5.5.32-1.19.37-2.06-.6-3.2-1.09-1.28-1.54-.82-2.12.15-.49.85-1.09,1.61-1.66,2.41-1.19,1.75-2.52,3.35-3.84,5.06-1.33,1.7-2.77,3.28-4.22,4.95l-.16-.19c1.31-1.83,2.58-3.61,3.75-5.39,1.15-1.81,2.23-3.53,3.19-5.17-.27-.9-.56-1.41-.51-1.78.06-.57.34-1.05.53-1.57l-.69-.83Zm-120.09,102.37l.11.94c-1.85,0-3.69.02-5.53.03-1.85,0-3.65-.11-5.49-.17-3.67-.15-7.37-.32-11.09-.54-3.65-.33-7.32-.69-11.03-1.1-1.85-.21-3.72-.41-5.57-.65-1.83-.29-3.66-.58-5.48-.86-3.66-.6-7.35-1.24-11.05-1.93-3.61-.79-7.23-1.63-10.87-2.52-1.83-.46-3.66-.92-5.47-1.37-1.83-.47-3.57-1.03-5.36-1.57-3.56-1.09-7.14-2.23-10.72-3.43l.1-.72,10.77,2.84c1.79.46,3.56.93,5.35,1.36l5.47,1.21,10.85,2.31c3.65.69,7.35,1.29,10.99,1.9l5.45.89c1.8.3,3.69.49,5.53.73l10.99,1.29c3.69.34,7.4.58,11.06.84,1.84.12,3.65.26,5.48.35l5.54.15Zm-41.37-67.58l-.16,1.06-7.9-1.51-3.99-.78-2-.4-1.96-.46-7.91-1.9-3.99-.98c-1.34-.32-2.68-.66-3.97-1.05l.2-.82,1.96.54,2,.48,3.99.95,7.91,1.84c2.59.64,5.3,1.08,7.94,1.59l7.89,1.44Zm58.47,69.33l.17.75-5.53.32c-1.85.1-3.72.22-5.55.22-3.68.06-7.39.09-11.13.11-1.89.03-3.72-.05-5.57-.11l-5.58-.21-5.63-.25c-1.89-.08-3.71-.27-5.57-.42v-.67c1.85.14,3.67.32,5.54.41l5.61.23,5.56.2c1.85.05,3.67.14,5.55.11,3.73-.02,7.43-.07,11.09-.13,1.82,0,3.67-.11,5.52-.22l5.51-.33Z"/>
  <path class="cls-1" d="m319.9,153.91l-.7-.35-.13-.21c.39-1.38.57-2.85,1.17-4.1.58-1.23,1.24-2.4,1.83-3.56.58-1.15,1.14-2.25,1.65-3.25-.63-.55-.97-.86-1.37-1.21-4.08,7.25-8.83,14.55-14.21,21.56l-.63-.43c1.2-1.74,2.39-3.45,3.54-5.18l3.29-5.27-.6-.37-3.29,4.47-3.49,4.36-.37-.27,1.68-3.36-.42-.21c-8.45,10.82-18.31,21.23-29.41,30.94l-.36-.35c1.02-.92,2.04-1.82,3.04-2.76l2.95-2.89c1.94-1.93,3.87-3.79,5.73-5.73,3.68-3.98,7.27-7.82,10.58-11.93l-.56-.44c-3.54,4.31-7.37,8.33-11.32,12.5-2.06,2-4.11,4-6.16,5.99l-1.58,1.51-1.62,1.43-3.3,2.86c-4.41,3.93-9.14,7.39-14.03,10.99-2.46,1.75-5,3.33-7.58,4.99-1.31.82-2.61,1.64-3.91,2.45-1.32.83-2.67,1.51-4.02,2.27,1.02-.7,2.05-1.38,3.08-2.05,1.03-.72,2.05-1.43,3.07-2.14,2.04-1.4,4.07-2.79,6.1-4.18,2.06-1.37,4.06-2.93,6.03-4.44,1.94-1.51,3.87-3.03,5.81-4.54,1.87-1.51,3.68-3.13,5.48-4.68,1.79-1.59,3.56-3.1,5.22-4.78,1.64-1.67,3.2-3.37,4.73-5.06l2.27-2.54c.75-.85,1.46-1.76,2.19-2.63l-.53-.4c-1.31,1.3-2.68,2.5-4.06,3.71.81-1.01,1.61-2.01,2.4-3,.79-1.02,1.58-2.03,2.36-3.04,1.57-2.01,3.11-3.98,4.55-6.01,1.83-2.73,3.97-5.17,5.91-7.69,1.88-2.63,3.54-5.35,4.45-8.49.8-2.84,2.94-5.29,4.31-7.91,1.25-2.48,2.37-5.03,3.48-7.49,1.08-2.49,2.03-5.04,2.99-7.49l-.98-.73c-.59.52-1.29.94-1.75,1.58-1.7,2.43-1.86,5.76-4.07,8.19-1.22,1.38-2.34,2.86-3.37,4.49-1.06,1.59-2.04,3.34-3.24,4.83-.31.4-1.03.46-1.9.81.46-1.06.74-1.73,1.03-2.4l-.41-.63c-.75.37-1.72.54-2.2,1.15l-2.21,2.8c-.75.92-1.53,1.8-2.31,2.71-1.57,1.79-3.12,3.69-4.76,5.46l-5.03,5.35c-.84.92-1.72,1.79-2.61,2.63l-2.67,2.59-3.52,3.41-3.64,3.27c-2.46,2.17-4.93,4.49-7.54,6.51l-.37-.4c10.65-9.2,20.11-19.03,28.21-29.28l-.51-.48c-.64.57-1.29,1.14-2.2,1.95,1.01-1.85,1.81-3.32,2.62-4.79l-.43-.19c-3.07,3.14-6.38,6.02-9.74,9.04l-.78-.77c1.13-1.89,2.1-3.83,3.16-5.68,1.05-1.87,2.23-3.59,3.65-5.29,1.41-1.62,2.65-3.37,3.84-5.13,1.17-1.78,2.23-3.68,3.35-5.43l1.65-2.62,1.55-2.69c1.01-1.8,2.04-3.51,2.96-5.32l-.73-.57c-11.34,18.19-26.5,36.9-47.43,50.68,1.74-1.32,3.41-2.84,5.07-4.27l4.91-4.3c1.6-1.45,3.15-3.01,4.69-4.49,1.53-1.51,3.06-2.94,4.52-4.49l-.4-.46c-2.9,2.3-5.88,4.58-8.93,6.91l-.34-.42c.46-.52.89-1.11,1.33-1.67l-.23-.28c-1.33,1-2.73,1.83-4.11,2.77l.17.11c10.62-10.07,19.78-20.85,27.29-31.97-.73.17-1.17.64-1.59,1.15-2.36,3.04-4.93,5.88-7.53,8.85-1.29,1.52-2.67,2.87-4.05,4.31l-4.21,4.3c-1.49,1.36-2.97,2.73-4.45,4.08-1.52,1.34-3.03,2.81-4.63,4.04-1.59,1.28-3.21,2.56-4.86,3.83l-2.5,1.91-2.58,1.75c-10.3,7.22-21.54,13.51-33.36,19.72-3.07,1.55-6.12,3.24-9.23,4.92-3.12,1.52-6.3,3.05-9.58,4.49-16.8,7.16-35.05,12.79-54.44,16.48-19.36,3.49-39.76,4.89-60.82,4.11-1.23-.08-2.39.44-3.59.68l.28.82c1.44.07,2.86.19,4.32.18,1.45,0,2.9,0,4.34,0,2.89.01,5.76.05,8.63.22,1.63.1,3.26.17,4.87.21.8.02,1.61.04,2.42.06l2.43-.07c3.2-.14,6.43-.29,9.64-.44,1.6-.07,3.19-.14,4.78-.21,1.59-.08,3.17-.06,4.78-.2,3.2-.21,6.41-.34,9.63-.32,1.82,0,3.63-.09,5.42-.27.9-.09,1.78-.18,2.67-.33.89-.16,1.78-.34,2.67-.53,3.54-.75,7.02-1.64,10.47-2.38,4.51-.87,8.97-2.22,13.34-3.45l6.51-1.88,1.61-.47,1.61-.55,3.2-1.1c1.04-.36,2.16-.56,3.24-.84l.16.36c-2.15,1.07-4.31,2.14-6.19,3.08,1.06,1.22,2.04,2.35,3.32,3.81-.47.08-1.17.19-1.87.3l.68.83,9.43-3.28c1.55-.51,3.09-1.19,4.62-1.8l4.56-1.87,4.5-1.86,2.23-.93,2.21-1.04,8.68-4.16c-2.23,1.47-4.55,2.87-6.95,4.18-1.2.66-2.42,1.29-3.67,1.9-1.25.56-2.52,1.07-3.81,1.57-23.21,9.22-48.84,15.7-75.81,19.16-2.36.3-4.76.71-7.13.95l-7.15.69c-2.42.22-4.83.43-7.24.65-1.22.1-2.44.2-3.65.29l-1.84.14-1.82.05c-9.69.19-19.78.34-29.84-1.24-3.05-.42-6.11-.22-9.17-.24-.27,0-.41.61-.81,1.27,4.49.46,8.97.92,13.42,1.37,2.22.2,4.4.48,6.62.61,2.22.12,4.43.24,6.64.36,4.38.23,8.74.46,13.09.69,4.36.12,8.72.1,13.03.16,8.42.24,16.74-.84,24.82-1.76l3.03-.36c1.01-.13,2.03-.32,3.03-.48,2.02-.33,4.03-.65,6.04-.97,2.01-.3,4.01-.6,6-.9,2-.29,3.99-.5,6-.87-23.04,5.69-47.74,8.34-73.1,7.94-3.2-.07-6.39-.13-9.58-.2-3.2-.11-6.36-.42-9.56-.66-3.22-.28-6.44-.55-9.65-.83l-4.86-.46c-1.61-.19-3.2-.44-4.81-.67-6.42-.93-12.9-1.94-19.44-3.05-6.42-1.32-12.87-2.76-19.38-4.27l-.03.71,4.96,1.78-.03.45-12.21-1.63-.05.78,16.55,4.88c2.75.79,5.47,1.63,8.24,2.38l8.36,2.07.03.65-8.63-1.36c-2.87-.49-5.67-1.11-8.53-1.66l-17.18-3.5c2.46,1.83,4.89,3.34,7.45,4.2,3.43,1.16,6.86,2.29,10.29,3.36,1.72.54,3.43,1.07,5.15,1.57,1.75.44,3.5.87,5.25,1.29,6,1.41,12,2.32,17.93,3.53,6.01,1.04,11.98,2.07,17.96,3.11l.05,1c-15.75-1.93-31.48-4.68-47.19-8.04,4.71,1.96,9.64,3.3,14.48,4.57,4.86,1.25,9.69,2.33,14.52,3.24,4.91.76,9.79,1.39,14.64,1.97,2.41.28,4.83.56,7.25.84,2.4.28,4.88.39,7.3.59,4.89.36,9.74.69,14.56.99,2.39.2,4.86.16,7.28.22l7.25.1c9.58.29,19.25-.35,28.67-.67-.43.41-.95.53-1.49.58-4.45.4-8.89.8-13.34,1.21l-3.37.29-1.69.14-1.67.07-6.74.28c-4.54.17-9.09.34-13.63.51-4.54-.02-9.09-.05-13.64-.07-1.92-.01-3.88-.13-5.86-.25-1.95-.12-3.89-.25-5.89-.37-3.87-.21-7.66-.03-11.16,1.38,1.13.32,2.11.59,3.1.87l.03.59-10.46-.42-5.27-.24-5.2-.43c-6.94-.59-13.97-1.19-21.04-1.88l-.06.65,9.06,3.13-.08.6c-3.52-.33-7.08-.64-10.62-1.01l-10.5-1.4.03.8c4.99,1.44,9.88,2.98,14.49,4.05-1.46-.02-2.94-.03-4.43-.05-1.49-.03-2.96-.12-4.47-.18-3.02-.15-6.08-.3-9.14-.45l.07.7c3.18.94,6.36,1.88,10.27,3.03-1.47-.03-2.21-.05-3.66-.08,4.35,1.86,8.22,3.14,13.06,4.91-4.19-.16-7.51-.27-10.8-.44l.11.78c3.31.84,6.61,1.68,10.3,2.62-1.21.32-2.02.54-2.82.75l.44.59-6.69-.57-.27.64c1.38.82,2.77,1.63,4.32,2.55-1.95-.11-3.74-.2-5.88-.32,2.34,1.15,4.27,2.09,6.2,3.04v.79c-1.89-.04-3.78-.07-5.82-.12,5.36,1.41,9.91,5.32,15.52,5.6.19,0,.47.31,1.39.95-4.79-.43-8.86-.8-12.93-1.17l.07.32c2.05.5,4.11,1,6.63,1.62-4.75.08-8.97.15-13.69.22,4.21,1.51,7.75,2.79,11.3,4.06l-.11.68-9.94-.49.09.5,3.93,1.31.06.4c-2.31-.27-4.63-.54-7-.81-2.37-.3-4.88-.53-7.37-.95,1.53.7,3.08,1.3,4.59,1.89,1.51.59,2.98,1.17,4.43,1.74,2.9,1.13,5.7,2.23,8.5,3.32l-.16.65c-1.17-.09-2.34-.18-4.03-.31,2.31,1.09,4.05,1.91,6.45,3.05-1.56.1-2.24.15-2.92.19l.14.44,5.68,1.02c1.89.34,3.77.68,5.72.93l11.54,1.59v.36s-14.01-.71-14.01-.71c-4.62-.37-9.22-.8-13.88-1.23l.18.79c.76.37,1.52.75,2.43,1.19-.96.36-1.75.66-3.2,1.21,2.61.71,5.01,1.37,7.29,1.99,2.29.61,4.42,1.24,6.67,1.73l.18,1.1c-3.39-.1-6.61-.43-9.93-.67l.13.72c2.87.71,5.65,1.52,8.59,2.09,2.9.6,5.81,1.21,8.72,1.81,2.89.58,5.78,1.15,8.68,1.73l4.33.83,2.16.41,2.21.33c11.79,1.72,23.33,3.48,35.22,4.24,3.01.24,6,.45,8.98.65,1.49.09,2.97.2,4.47.25l4.52.08c6.01.09,11.96.1,17.84.04,5.95-.2,11.89-.59,17.74-.97,5.83-.3,11.73-1.06,17.54-1.76,23.19-2.87,45.71-7.79,67.14-14.96,21.42-7.07,41.92-15.94,60.18-26.97,18.37-11.08,34.64-24.12,48.6-38.32,6.88-7.14,13.18-14.41,18.83-22.07,2.87-3.73,5.51-7.67,8.11-11.47,2.53-3.91,5-7.76,7.28-11.69-.95-.35-1.4-.52-1.95-.73-2.15,3.44-4.48,6.7-6.82,10.09-1.22,1.65-2.45,3.3-3.69,4.97-.63.84-1.26,1.68-1.9,2.52-.66.82-1.32,1.65-1.98,2.48.65-4.68,3.06-8.86,5.71-12.8,2.59-4.04,5.39-7.94,6.63-12.23-4.5,7.94-9.63,15.82-15.31,23.46l-.74-.31c1.27-1.96,2.53-3.89,3.74-5.85,1.18-1.98,2.36-3.95,3.54-5.92,1.65-2.71,3.15-5.55,4.66-8.28,1.48-2.77,2.87-5.57,4.22-8.32,2.62-5.57,5-11.16,6.72-16.57.21-.68.57-1.89.37-1.98-1.26-.63-1.27-1.39-1.06-2.15.18-.75.62-1.51.46-2.2-.09-.25-.05-.5.01-.75l.11-.37c.15-.23.3-.46.45-.68-.42.04-.97.19-1.15.02l-.11.84c-.06.3-.18.64-.27.95-.2.65-.38,1.3-.67,1.99-.51,1.36-1.06,2.75-1.71,4.15l-.53-.12c.22-1.75.4-3.48.47-5.18l-.43-.11c-.49,1.62-1.21,3.28-1.85,4.96l-.42-.09c-.03-.71-.06-1.42-.1-2.64-1.01,1.98-1.93,3.42-2.77,4.89l-.51-.19,1.2-4.41-.37-.13c-.43.79-.86,1.58-1.62,2.96.27-1.75.44-2.83.69-4.4-2.04,3.48-4.04,6.56-6.15,9.61l-.57-.36c.44-1.38.84-2.78,1.2-4.17l-.9-.17c-.67,1.67-1.46,3.28-2.23,5.02-.53-.88-1.03-1.7-1.68-2.78-.59.86-1.02,1.47-1.44,2.08l-.33-.14c1.05-3.16,2.12-6.22,2.98-9.33l-.39-.15c-.69,1.24-1.48,2.44-2.61,4.24-.32-1.56-.5-2.45-.6-2.97-.74.77-1.49,1.54-2.24,2.32-.76.78-1.56,1.52-2.35,2.29-1.58,1.54-3.18,3.09-4.86,4.57l-.62-.47c2.67-6.14,4.88-12.38,6.72-18.44l-.56-.35c-3.8,6.28-8.31,12.51-13.2,18.66-4.92,8.09-10.63,15.89-16.85,23.66l-.88-.54c1.57-1.8,3.05-3.73,4.52-5.61,1.46-1.9,2.93-3.72,4.31-5.64l4.07-5.74c1.35-1.87,2.57-3.89,3.83-5.79-.18-.55-.61-1.13-.5-1.64.52-2.48,1.01-4.96,1.7-7.41.48-1.65.55-2.77-1.05-3.82-1.78-1.17-2.53-.39-3.41,1.09-.76,1.27-1.71,2.46-2.59,3.7-3.76,5.27-7.88,10.41-12.28,15.49l-.26-.18c1.93-2.74,3.86-5.35,5.59-8.03,1.72-2.7,3.4-5.22,4.86-7.69-.49-1.02-.96-1.54-.91-2.03.08-.74.52-1.46.8-2.18l-1.15-.76Zm-162.57,152.01l.43,1.11c-10.58,1.47-21.09,2.07-31.86,2.74-1.35.1-2.68.13-4.01.15l-4,.07c-2.68.03-5.37.06-8.05.09-2.71,0-5.41.02-8.11.02-2.71-.02-5.35-.19-8.05-.29-5.37-.25-10.78-.54-16.23-.9-5.4-.44-10.73-1.1-16.15-1.73-10.93-1.15-21.49-3.25-32.33-5.38l-.11-.91,16.01,2.33,3.98.56c1.32.19,2.64.38,4,.5l8.08.82c5.37.53,10.71,1.05,16.03,1.52l16.16.85,8.01.37,8.1.05c5.39.01,10.72.05,16.06-.02,10.8-.49,21.36-.77,32.03-1.96Zm-82-76.59l.15,1.34-11.95-1.14-6.03-.59c-2.02-.19-4.04-.39-6.01-.7l-11.99-1.73-6.04-.89c-2.02-.3-4.06-.58-6.03-.98l-.03-1.06c1,.18,1.98.38,2.98.53l3.03.43,6.03.85,11.97,1.65,2.97.4,3.02.28,6.01.55,11.92,1.06Zm107.11,75.65l.45.86c-5.22.91-10.5,1.86-15.79,2.68l-15.93,1.98-4.02.48c-1.35.17-2.66.23-4,.35l-8.03.61-8.09.58c-1.35.08-2.72.21-4.06.25l-4.02.12-.22-.81c21.56-1,42.83-3.02,63.72-7.08Z"/>
  <path class="cls-1" d="m183.8,771.06l.52.97-.12.17c-2.62-.53-5.05-.84-7.85-1.74-2.74-.88-5.44-1.9-8.09-2.89-2.63-1-5.11-2.02-7.38-2.91,0,.85,0,1.32.01,1.85,17.28,7.35,35.5,13.8,54.38,18.91l.52.86c-8.94-2.23-17.73-4.77-26.35-7.57l.43.83c7.89,2.83,15.95,5.44,24.17,7.79l.29.51c-2.53-.5-5.14-.97-7.66-1.53l.43.57c15.15,4.58,30.75,8.38,46.64,11.07,15.84,2.74,31.95,4.34,47.79,4.86l.49.45c-23.63-.49-47.81-3.6-71.15-8.91l.5.77c49.92,11.47,102.59,12.11,149.85,2.3-8.91,2.26-18.66,3.97-28.63,5.2-10.17,1.26-20.6,2.07-31,2.36-10.21.3-20.64.09-30.92-.39-10.17-.46-20.12-1.2-30.2-2.42l.68.69c4.22.73,8.53,1.29,12.76,1.88-11.13-.61-22.69-2.17-33.8-3.91-3.66-.53-7.31-1.33-11.09-2.12-3.69-.85-7.49-1.74-11.14-2.66-3.67-.92-7.31-1.8-10.78-2.61-3.52-.78-6.87-1.48-10.1-1.95-5.8-.82-13.53-3.91-20.17-6.05-12.38-3.99-24.38-8.36-36.07-13.12l.34,1.46c1.88,1.17,3.77,2.51,5.7,3.47,1.79.9,3.49,1.64,5.17,2.28,1.7.64,3.37,1.2,5.05,1.77,3.33,1.14,6.85,2.29,10.82,4.22,8.96,4.27,18.11,6.98,27.51,10.09,1.24.4,2.75,1.44,5.09,2.6-2.59-.51-4.16-.87-5.76-1.22l-.13.65c2.08,1.06,4.44,2.42,6.38,3.03,23.67,7.43,48.77,12.86,74.07,15.58,4.07.48,8.21.78,12.26,1.12,4.11.24,8.16.54,12.23.66,4.07.14,8.11.26,12.15.25,2.02,0,4.01.03,6.04-.01l6.04-.13.66.46c-16.72.62-33.82.18-50.93-1.59-8.58-.82-17.08-2.04-25.59-3.44-8.46-1.45-16.89-3.14-25.18-5.1l.52.78c2.31.67,4.57,1.36,7.88,2.26-2.53-.35-4.73-.74-6.85-1.08-2.11-.35-4.13-.67-6.08-1.04l.73.62c11.77,3.42,23.88,6.35,36.2,8.69.35.39.71.78,1.07,1.16-10.44-.85-20.09-1.35-32.12-4.29-11.74-2.91-22.72-5.4-33.7-8.68-10.91-3.27-21.57-6.94-31.91-10.89l.55,1.19c28.44,11.65,59.48,20.55,91.79,25.77,16.12,2.65,32.59,4.28,49.02,5.03,4.1.23,8.23.28,12.32.38,4.11.08,8.25.04,12.37.04,8.31-.15,16.65-.41,25-1.04-11.27,1.18-22.84,1.85-34.28,1.96-11.45.12-23.04-.27-34.67-1.18l.62.6c10.76,1.21,21.55,1.98,32.25,2.33l.63.47c-1.78.12-3.53.17-5.3.26l.42.33,3.57.18,3.6.11,7.17.18-.41-.16c-9.74.34-19.54.42-29.43.04-9.86-.39-19.85-1.06-29.74-2.2-9.91-1.11-19.83-2.56-29.58-4.39-9.77-1.81-19.46-3.94-28.92-6.39,2.25,1.07,4.17,1.67,6.11,2.18,22.45,6,45.94,10.11,69.5,12.23,11.81,1.06,23.59,1.56,35.37,1.62,11.78.06,23.75-.32,35.6-1.29,17.66-1.42,34.7-4.16,49.77-7.74,3.84-.87,7.41-1.84,11.03-2.78,3.49-.98,7.03-1.96,10.31-2.99,3.38-1.01,6.52-2.06,9.7-3.1l4.59-1.58,2.27-.79,2.19-.79c12.15-4.41,22.26-8.98,32.54-13.02,13.06-5.15,25.51-9.79,38.64-13.66,6.55-1.91,13.25-3.69,20.14-5.21,6.89-1.5,13.98-2.86,21.19-3.91,14.43-2.16,29.48-3.38,44.98-3.48,15.5-.11,31.42.91,47.49,3.07,1.89.26,3.6.01,5.41,0l-.52-.72-6.62-.86c-1.1-.13-2.19-.29-3.3-.4l-3.32-.32c-2.21-.22-4.41-.45-6.62-.67l-3.3-.36-3.34-.3c-2.54-.24-5.05-.45-7.54-.65-1.24-.11-2.49-.17-3.75-.22l-3.74-.15c-2.49-.08-4.94-.2-7.4-.22h-7.38s-3.66,0-3.66,0l-3.68.09-7.33.14c-2.46.1-4.91.19-7.37.25-1.23.04-2.46.04-3.7.09-1.24.05-2.48.1-3.73.14-11.28.35-21.67,2.53-31.88,4.67-6.68,1.43-13.18,3.02-19.54,4.81-6.36,1.81-12.59,3.75-18.79,5.83-1.53.52-3.22.95-4.83,1.42l-.35-.23c1.52-.67,3.04-1.33,4.51-1.98,1.48-.63,2.91-1.23,4.24-1.79-2-.68-3.85-1.35-6.32-2.12.71-.17,1.78-.43,2.83-.67l-1.31-.48c-9.3,3.15-18.47,6.61-27.93,10.26-9.46,3.66-19.32,7.55-30.05,11.42,8.29-3.63,16.41-7.1,24.71-10.2,9.33-3.48,18.3-6.8,27.31-9.83,9-3.02,18.06-5.76,27.4-8.15,9.33-2.39,18.95-4.44,28.84-6.08,2.47-.39,4.96-.84,7.46-1.18l7.55-1.02c2.53-.33,5.07-.56,7.63-.85l3.85-.41,3.86-.3c14.48-1.19,29.26-1.72,44.44-1.18,15.15.59,30.65,2.32,46.34,5.52,2.36.5,4.7.87,7.04,1.19,1.17.16,2.34.32,3.51.48,1.16.19,2.31.38,3.46.57.41.07.56-.42,1.11-.88-1.73-.38-3.41-.81-5.16-1.14-1.74-.34-3.47-.67-5.2-1.01-3.47-.65-6.86-1.37-10.33-1.93-3.45-.55-6.9-1.09-10.34-1.64l-2.56-.4-2.59-.33-5.16-.65-5.13-.64c-1.7-.23-3.44-.34-5.15-.52-3.44-.31-6.84-.66-10.25-.92-3.41-.21-6.82-.42-10.23-.64-1.69-.13-3.4-.16-5.1-.22l-5.09-.17c-13.3-.35-26.1.39-38.56,1.75-12.46,1.36-24.6,3.36-36.73,5.57,17.13-4.07,35.37-6.89,54.29-8.15,18.93-1.29,38.61-1.11,58.45.79,19.85,1.86,39.87,5.29,59.62,10.14,19.77,4.83,39.11,11.19,57.93,18.61l.04-.62-7.18-3.38.04-.38,17.68,5.91.07-.67c-15.94-7.07-32.26-13.63-49.12-19.35l-.08-.57,12.92,3.91,3.25.99c1.08.34,2.12.71,3.18,1.06l6.35,2.16c8.59,2.8,16.77,6.04,25.17,9.19-3.59-2.53-7.13-4.75-10.85-6.45l-3.74-1.71-3.85-1.61-7.72-3.16c-5.08-2.13-10.42-3.98-15.68-5.82-2.26-.78-4.51-1.54-6.77-2.27l-6.92-2c-4.62-1.29-9.14-2.65-13.86-3.82l-6.97-1.83c-2.33-.6-4.61-1.25-7-1.78-4.73-1.09-9.41-2.22-14.14-3.24l-.21-.84c24.93,4.75,49.26,11.55,72.72,19.73-1.79-.8-3.57-1.61-5.38-2.37-1.84-.72-3.68-1.44-5.52-2.16-3.68-1.41-7.34-2.78-11.02-4.08-3.76-1.22-7.51-2.4-11.25-3.54-1.88-.56-3.72-1.15-5.62-1.66l-5.71-1.48c-15.1-4.02-30.58-6.78-46.02-9.04l-5.83-.8c-1.94-.25-3.86-.55-5.83-.73l-11.67-1.19c-3.9-.33-7.81-.57-11.68-.84l-2.9-.19-2.92-.11-5.82-.22c-15.49-.49-30.84-.13-45.9,1.02.59-.35,1.39-.5,2.25-.59,27.87-2.74,57.17-2.63,86.29.29,3.05.31,6.18.73,9.34,1.15,3.14.45,6.24,1,9.34,1.42,3.08.45,6.16.75,9.06.99,2.9.25,5.71.32,8.37.12-1.8-.52-3.38-.97-4.96-1.42l-.12-.51c21.92,3.37,43.71,8.13,64.87,14.12l.05-.55-13.83-5.67.08-.49,16.09,4.32c5.33,1.51,10.55,3.15,15.87,4.76l-.08-.71c-3.76-1.48-7.52-2.97-11.19-4.41-1.81-.74-3.71-1.38-5.52-2.04-1.82-.65-3.61-1.29-5.35-1.91,2.2.49,4.44.99,6.7,1.49,1.13.26,2.28.51,3.42.77,1.12.28,2.24.57,3.37.85,4.54,1.16,9.15,2.34,13.76,3.52l-.13-.63c-4.85-1.92-9.66-3.85-15.61-6.16,2.24.5,3.33.79,5.53,1.31-1.69-.76-3.27-1.52-4.9-2.22-1.64-.69-3.25-1.37-4.88-2.05-3.26-1.36-6.59-2.75-10.32-4.31,6.41,1.53,11.41,2.73,16.41,3.92l-.22-.71c-5.07-1.82-10.15-3.64-15.8-5.67,1.82.11,3.03.19,4.24.27l-.71-.66,10.2,2.7.37-.47c-2.16-1.17-4.31-2.34-6.73-3.65,2.97.74,5.7,1.41,8.96,2.22-3.64-1.78-6.64-3.24-9.63-4.71l-.05-.69c2.88.66,5.76,1.31,8.88,2.02-2.07-.76-4.07-1.63-6.04-2.54-1.97-.92-3.89-1.89-5.94-2.76-4.03-1.78-8.12-3.44-12.5-4.38-.3-.06-.76-.4-2.27-1.23,7.48,1.76,13.96,3.25,20.32,4.87l-.13-.31c-3.2-1.1-6.51-2.12-10.51-3.41,3.68.66,7.2,1.28,10.69,1.94,3.43.72,6.86,1.44,10.48,2.19-3.27-1.36-6.29-2.62-9.17-3.82-2.97-1.14-5.81-2.22-8.65-3.31l.11-.56,7.82,1.7c2.64.56,5.12,1.23,7.69,1.84l-.17-.47c-2.06-.81-4.05-1.66-6.16-2.43l-.12-.36c3.65.93,7.15,1.98,10.84,3.02,3.66,1.05,7.47,2.12,11.42,3.3-9.91-4.37-18.54-8.25-27.71-11.75l.19-.51c1.85.43,3.71.86,6.38,1.49-3.76-1.65-6.58-2.88-10.48-4.59,2.46.38,3.53.55,4.6.71l-.27-.42c-3.05-.86-6.03-1.75-9.12-2.56l-9.3-2.36c-3.1-.77-6.16-1.57-9.29-2.29l-9.46-2.08-.07-.31c3.78.66,7.6,1.31,11.39,2.01l11.21,2.3c7.58,1.5,14.85,3.31,22.26,5.09l-.36-.74c-1.24-.56-2.49-1.11-3.97-1.77,1.49-.02,2.71-.04,4.94-.07-4.22-1.41-8.08-2.7-11.76-3.94-3.74-1.18-7.38-2.25-10.97-3.33l-.41-1,8.06,1.63,4.03.84,3.95.91-.28-.67c-18.66-5.84-37.8-10.93-57.57-14.83-19.77-3.88-39.96-6.72-60.3-8.32-20.75-1.64-41.4-1.84-61.45-.76-2.51.14-5.01.25-7.49.44l-7.43.6c-4.94.37-9.83.95-14.7,1.47-9.74,1.17-19.36,2.57-28.76,4.26-9.36,1.7-18.46,3.63-27.23,5.76-8.73,2.15-17.09,4.47-25.02,6.86-15.92,4.8-29.81,9.87-42.25,14.37-12.49,4.53-23.41,8.43-34.21,11.52-5.41,1.55-10.81,2.93-16.35,4.07-5.54,1.13-11.24,2.05-17.15,2.79-5.95.7-12.08,1.17-18.31,1.46-6.22.25-12.55.25-18.98.05-12.83-.47-26.04-1.89-39.27-4.32-26.27-4.79-52.6-12.81-77.57-23.78.07,1.01.11,1.49.15,2.07,5.61,2.57,11.24,4.97,16.94,7.27,5.71,2.28,11.52,4.42,17.46,6.45-6.02.17-12.92-1.8-19.71-4.38-6.82-2.56-13.59-5.66-19.94-7.44,13.1,5.72,26.5,10.8,40.14,14.96l.23.78c-6.7-1.78-13.33-3.78-19.96-6.01-9.24-3.12-18.39-6.61-27.4-10.41-8.99-3.8-17.85-7.9-26.55-12.23-1.1-.54-3.04-1.53-3.1-1.32-.6,2.75-4.41-1.12-6.44-1.5-.78-.14-2.03-1.19-3.07-1.82l.2,1.2c4.58,2.73,9.28,5.38,13.98,7.97l.12.64c-2.66-.88-5.26-1.79-7.92-2.7l.09.55c2.78,1.48,5.56,2.95,8.37,4.39l.12.53c-1.02-.22-2.04-.43-3.79-.81,3.5,2.12,6.13,3.63,8.74,5.14l.04.59c-2.38-.94-4.74-1.91-7.12-2.88l.03.44c1.42.81,2.84,1.61,5.31,3.02-2.73-.91-4.41-1.47-6.85-2.28,6.42,3.91,12.18,7.21,18.03,10.41l-.08.65c-2.28-.77-4.56-1.56-6.82-2.38l.42,1.13c2.88,1.27,5.79,2.52,8.83,3.78-.82.53-1.58,1.03-2.59,1.68,1.7.9,2.91,1.53,4.11,2.17l.08.39c-5.3-1.82-10.62-3.72-15.85-5.72l.09.49c2.36,1.29,4.78,2.56,8.31,4.39-2,.1-3.15.16-3.8.2,7,4.6,14.39,9.12,22.05,13.44v.77c-11.42-3.6-22.66-7.65-33.7-12.06l-.03.69c13.16,7.35,26.99,14.17,41.39,20.26,17.11,6.09,34.86,11.11,52.85,14.69l.67,1.03c-17.65-3.56-35.09-8.48-51.84-14.48-.54.24-.83.8-1.67.68-2.08-.29-4.12-.62-6.23-1-2.11-.37-4.26-.81-6.44-1.37-2.96-.75-4.75-.97-4.34,1.13.45,2.33,2.57,3.51,5.92,4.76,2.87,1.09,5.89,2.36,8.86,3.52,12.69,4.91,25.85,9.24,39.29,12.86l.2.34c-13.1-2.96-25.93-6.68-37.18-10.42-.78.67-.84,1.32-1.62,1.27-1.2-.09-2.89-.68-4.34-1.08l.54,1.58Zm323.01-67.64l-1.04-.76c16.96-3.03,34.49-5.28,52.34-6.49,17.89-1.22,36.25-1.49,54.7-.66,36.86,1.7,74.05,7.61,109.12,17.34l.28.81c-2.17-.54-4.29-1.11-6.48-1.62l-6.6-1.49-6.59-1.46c-2.2-.48-4.36-.99-6.62-1.39l-13.38-2.53c-2.21-.43-4.48-.78-6.74-1.14l-6.77-1.06c-18.07-2.72-36.37-4.68-54.73-5.55-18.35-.89-36.69-.82-54.67.21-8.99.5-17.88,1.27-26.69,2.21-8.82,1.01-17.56,2.16-26.14,3.59Zm150.81,60.21l-.41-1.13c24.96,3.9,49.77,9.81,73.67,17.47l.08.93c-23.82-7.57-48.5-13.45-73.34-17.27Zm-190.71-53.72l-.94-.53c15.47-4.15,32.29-7.81,49.66-10.56,17.43-2.74,35.2-4.66,53.42-5.59l.6.61c-18.15.93-35.86,2.84-53.22,5.56-8.65,1.38-17.19,2.94-25.46,4.73-4.17.86-8.2,1.83-12.25,2.77-3.98.99-7.97,1.96-11.81,3.01Z"/>
</svg>